<?xml version="1.0" encoding="utf-8"?>
<!-- Generator: Adobe Illustrator 25.0.0, SVG Export Plug-In . SVG Version: 6.00 Build 0)  -->
<svg version="1.1" id="Layer_1" xmlns="http://www.w3.org/2000/svg" xmlns:xlink="http://www.w3.org/1999/xlink" x="0px" y="0px"
	 viewBox="0 0 4000 4000" style="enable-background:new 0 0 4000 4000;" xml:space="preserve">
<style type="text/css">
	.st0{fill:#00501E;}
	.st1{opacity:0.21;}
	.st2{fill-rule:evenodd;clip-rule:evenodd;fill:#380072;}
	.st3{fill-rule:evenodd;clip-rule:evenodd;fill:#ABFE2C;}
	.st4{opacity:0.5;}
	.st5{fill-rule:evenodd;clip-rule:evenodd;fill:#FFFFFF;}
	.st6{fill-rule:evenodd;clip-rule:evenodd;fill:#E5FFBE;}
	.st7{fill:#ABFE2C;}
	.st8{opacity:0.6;}
	.st9{fill:#FFFFFF;}
	.st10{opacity:0.2;}
	.st11{fill:#000072;}
	.st12{fill:#FFC880;}
	.st13{fill:#FF66AD;}
	.st14{fill:#6EB206;}
	.st15{fill:#91D826;}
	.st16{fill:#E5FFBE;}
	.st17{opacity:0.5;fill:#C0B4BD;}
	.st18{fill:#23CC23;}
</style>
<path class="st9" d="M1009.5,2738.5c10.8-66,6.4-133.3,16.5-199.5c1.7-11.5,2.4-23.3,2.3-35c-0.8-68.8,9-136.6,17.9-204.5
	c7.6-57.9,14.3-116,21.8-173.9c1.6-12.8-9.4-27.4,2.9-38.1c12.7-11.2,29-5.7,43.4-3.9c111.2,13.8,223.1,16.3,334.9,21.2
	c75.1,3.3,150.2,6.2,225.4,6.5c23.4,0.1,46.5-1.9,69.9-4.9c29.6-3.9,60.7-5.9,90-1.2c40.1,6.4,80,4.5,120,6.4
	c88.8,4.2,176.8-9.1,265.4-9.7c70.1-0.4,140.1-6.7,210.1-11c16.6-1,33-5.3,49.5-7.2c9.9-1.1,20.1-1.6,29.9-0.5
	c9.1,1,15.5,7.7,15.2,17.1c-2.9,73.9,16.3,145.5,21.9,218.5c4.5,58.3,12.7,116.1,14.5,174.8c2,64.9,10.8,129.6,15.2,194.6
	c2.2,33.3,5.7,67.5,0.8,100.2c-9,59.6-6,119.9-16.8,179.5c-18.3,101.3-56.8,192-125.5,269.1c-41.1,46.1-92,77.5-150.8,95.3
	c-91.3,27.6-183.5,50.4-278.8,60.9c-65.1,7.2-129.9,9.7-195.1,7.1c-10-0.4-20.1-0.6-30.1,0c-162.6,9.3-319.7-19.5-474-67.7
	c-70.7-22.1-126.8-63.5-173.3-122.3c-58-73.4-88.2-156.5-103.6-246.9c-7-41.3-10.7-82.8-10.7-124.7
	C1018,2805,1006.1,2772.4,1009.5,2738.5z M1799.3,2706.3c-53.6,0-107.1,0-160.7,0c-33.5,0-67-0.9-100.4,0.5
	c-39.4,1.6-52.5,16.3-55.2,56.2c-3.5,51.6,7.8,100.9,32.1,145.2c32,58.3,76.9,105.7,142.1,127.9c65.6,22.3,133,32.4,201.9,18.5
	c40.9-8.2,82.8-15.4,118.1-39.8c82.6-57.1,127.2-135.5,128.1-236.8c0.5-58.8-11.7-71.1-70.1-71.5
	C1956.6,2705.9,1878,2706.3,1799.3,2706.3z M1297.3,2385.7c-48.3,0.2-86,38.1-85.3,85.8c0.6,40.6,23.9,78.9,82.6,81.7
	c44.5,2.1,85.3-41.2,84.7-87.4C1378.8,2427.3,1336.1,2385.6,1297.3,2385.7z M2292,2553.6c58.2-2.6,83.6-40.5,84.6-79.9
	c1.3-48.2-33.9-85.8-83.1-87.8c-41-1.7-83.1,40.1-83.9,83.2C2208.8,2511.7,2249.1,2553.2,2292,2553.6z"/>
<path class="st14" d="M3314.3,2834.5c41.7,0.4,75.5-3,107.6,9.6c12.4,4.8,25.3,9.5,36,17c15.9,11.3,22.9,27,19.5,48
	c-6.7,41.4-27.8,75.1-54.7,105.5c-53.8,60.9-117.8,108-190.3,145.2c-143.4,73.5-295.9,112.8-455,132.4c-85.2,10.5-170.2,9-255.4,6.5
	c-14.9-0.4-29.8-3.6-44.5-6.6c-36.2-7.4-38.5-15.3-15-45.7c16.3-21.2,34.3-41.5,47.6-64.4c19.2-33,46.2-57.3,77.2-77.2
	c67.7-43.2,135.4-86.5,208.2-120.9c121.3-57.4,246.5-104.2,377.9-132.7C3222.4,2840.5,3272,2831.4,3314.3,2834.5z"/>
<path class="st15" d="M3311.3,2189.5c-0.7,24.1-13.1,55.3-25.8,86.2c-27.5,66.8-66.1,127.7-106.7,186.9
	c-102.5,149.6-223.2,283.5-356.4,406c-60.3,55.4-123.5,107.5-192.5,152c-12.3,7.9-25.1,21.7-40.3,14c-18.4-9.2-6.1-26.7-4.6-40.6
	c6.7-61.3,14.2-122.6,20.6-184c1.4-13.5,3.3-25.8,11.2-37.6c57.4-86.3,114.4-172.6,178.5-254.3c72.4-92.3,153.5-176.4,240.1-255.2
	c40.9-37.2,86.9-67.9,134.8-95.4c27.7-15.9,57.3-27.7,88.8-33.6C3297,2126.9,3311.4,2139.9,3311.3,2189.5z"/>
<g class="st4">
	<path class="st14" d="M2654.5,3077.5c10.9,2.1,20.6,4.4,30.5,5.9c8.2,1.2,16.6,2.4,24.9,2.1c206.6-6.1,404.7-43.8,581.4-159.3
		c32.2-21.1,63.9-43.1,91.6-69.6c15.9-15.2,31.5-17.1,50-9.1c9.1,3.9,18.6,8.1,26.3,14.2c15.2,12.2,21.7,27.7,18.2,48.5
		c-6.6,39.6-26.4,72.2-51.9,101.3c-52.3,59.5-114.2,106.6-184.5,144c-133.1,70.9-276,109.3-423.5,132.6
		c-99.3,15.7-199.6,15.9-299.8,10.4c-18.2-1-36.3-5-54.2-8.9c-15.7-3.4-20.8-17.2-9.9-30.5c28.8-34.8,51.7-74,79.8-109
		c23.9-29.8,56.7-51.8,92.8-66.5C2635.1,3080,2645.4,3079.4,2654.5,3077.5z"/>
	<path class="st14" d="M3310.9,2181.5c-1.4,34-13.2,65.3-26.1,96.2c-27.2,65.3-64.8,124.8-104.4,182.8
		c-103.3,151.3-225.5,286.4-360.2,410.1c-57.8,53.1-118.5,103.3-184.8,146.1c-11.2,7.2-22.9,13.8-35,19.4
		c-9.2,4.2-20.6-5.2-19.9-15.9c0.4-6.6,2.4-13.1,3.2-19.7c7.4-61.3,15.5-122.6,21.8-184c4.8-47.6,27.3-82.6,72-98.5
		c73.4-26.1,139.6-65,201.2-111.3c88.8-66.7,165.4-146,232.3-234.8c46.5-61.7,87.6-126.5,115.4-199.1c8-20.8,17-40.1,44.6-40.7
		c24.9-0.5,37.2,9,39.8,34.3C3311.3,2171.4,3310.9,2176.5,3310.9,2181.5z"/>
</g>
<path class="st16" d="M1799.2,2734.1c71.9,0,143.9-0.1,215.8,0c13.4,0,26.8,0.2,40.1,1.3c13.6,1.1,20.7,9.5,21.7,23
	c4.8,67.9-12.9,128.3-55.9,182c-46.4,57.8-109.2,79.7-179.2,88.9c-55.6,7.3-109.5-0.9-163.4-14.7c-61.2-15.6-103.1-56.5-133.7-106.9
	c-27-44.5-39.2-95.8-33-149.4c1.5-13.4,8.1-21.9,21.8-23c13.3-1.1,26.7-1.2,40.1-1.3C1648.7,2734,1724,2734.1,1799.2,2734.1z"/>
<path class="st7" d="M3152.5,1624.4c-1.9,56.5-5.6,109.8-31.8,158.6c-13.6,25.4-18.4,27.5-42.2,13.9c-67.9-38.7-140.5-59-218.3-68.9
	c-80.6-10.3-156.7,4.6-232.1,26c-71.4,20.3-135.5,57.3-192.9,104.8c-57.4,47.4-104.4,103.5-133.4,172.8c-10.3,24.6-28.1,30-51.8,30
	c-115.5,0.3-231,1.2-346.6,2c-26.7,0.2-53.2,0.4-79.9,5.4c-19.3,3.6-40.4,3.3-59.8-0.2c-23.3-4.1-46.5-5.1-69.9-5.3
	c-113.8-0.7-227.9,2.6-341.5-3.2c-108.2-5.5-217-8.1-323.7-32.9c-56.9-13.2-115.7-17.9-172.1-34.1c-48.3-13.9-96.5-27.6-144.7-41.9
	c-11.2-3.3-22.1-7.8-32.7-12.7c-9.8-4.6-11.8-19-3.5-25.1c10.8-7.8,22.5-14.4,33.7-21.6c46.8-29.9,89.7-64,121.8-110.5
	c70.2-101.7,94.3-212.7,70-334c-20.7-103.3-71.9-190.2-145-264.7c-29.4-30-63.8-54-99.8-75.6c-10-6-20.6-11.3-30.2-18
	c-13.6-9.5-16.7-19.6-11-34.7c3.5-9.4,8.1-18.4,12.8-27.3c56.3-108.8,122.7-211,199.1-306.9c49.3-61.9,103.5-118.4,166.6-166.1
	c22.6-17.1,46-33.6,70.5-47.9c34.2-20.1,41.6-16.9,56.1,18c2.6,6.2,4.2,12.8,6.9,18.9c45.3,103.5,110.3,191.4,205.7,253.8
	c47.7,31.2,98.6,57.3,155.4,68.4c93.5,18.4,186.2,17.7,276.7-16.4c122.4-46,214.1-128.1,281.9-238.6
	c38.8-63.3,66.2-131.2,80.5-204.2c1.6-8.2,4-16.3,6.8-24.2c4.7-13.3,12.3-17.4,27.3-15.4c1.6,0.2,3.2,0.9,4.9,1.2
	c147.2,26.5,282.2,82.5,404.9,167.8c19.2,13.3,37,28.8,54.7,44.1c12.4,10.7,11,24-3,33.2c-8.4,5.5-17.6,9.6-26.4,14.5
	c-104.2,58.9-172.2,146.6-207.6,260.3c-35.8,115.4-29.3,229,23.3,337.3c60.3,124.2,159.3,200.5,297.9,219.6
	c57.8,8,113.5-6.1,166.7-27.2c61.6-24.4,115-61.3,155.7-114.7c2-2.7,4-5.4,6.2-7.9c17.3-18.9,32.3-17,41.9,5.5
	c2.6,6.1,4.2,12.7,6.4,19c27.4,77.5,47.6,156.8,60.8,237.9C3151.5,1580,3151.2,1603.7,3152.5,1624.4z M1626.2,1809.9
	c48.9,1.1,96.7-5.7,144-17.3c83-20.4,156.6-57.4,215.1-121.5c64.2-70.4,92.7-177.9,37.3-278.4c-45-81.5-113.1-136.4-196.6-171.4
	c-101.5-42.5-206.9-62-318.2-45.1c-70.7,10.7-136.5,31.5-197.5,67.8c-72.2,43-121.2,103.6-141.2,186.5c-6.4,26.7-6.4,52.8-1.8,79.5
	c16.1,94.5,75.6,159.3,150.6,210.1C1410.1,1782.8,1515.2,1808.1,1626.2,1809.9z"/>
<path class="st9" d="M1634.6,1780.3c-95-1.4-185.8-20-270.6-64.4c-43.6-22.8-80.8-53.4-112.4-91c-33.2-39.5-55-84.5-58-136.3
	c-3.3-57.3,15-108.9,52.4-152.6c41-48,91.3-83,151.6-103.4c47.8-16.2,96.5-24.6,147-29.2c101-9,196.4,8.1,286.9,51.6
	c65.6,31.6,123.9,73.3,159.9,139.8c42.6,78.8,43.3,155.6-7.3,231.7c-43,64.8-107.4,99.1-177.1,125.1
	C1751.6,1772.1,1693.8,1781.3,1634.6,1780.3z"/>
<path class="st9" d="M1787,314.9c96.6,7.5,187,8.9,275.2,29.3c4.9,1.1,9.7,2.5,14.5,3.9c25.4,7.5,31.2,14.8,26.1,39.2
	c-20.3,97.8-57.3,187.7-119.4,267.4c-52.7,67.6-117.6,118-194.2,154.4c-53.5,25.4-109.6,40.3-169.5,38.4
	c-38.3-1.2-76.7,2.3-114.9-6.1c-119.9-26.5-213-93.2-286.1-189.6c-34.5-45.5-61.9-95.3-80.1-149.7c-9.7-28.9-7.3-34.4,18.5-48.2
	c42.8-22.9,87.5-41.4,134.6-53.9c92-24.5,184.4-47.5,278.3-63.9c39.4-6.9,79.4-9.9,119.2-14.1C1724.1,318.3,1759.7,324.9,1787,314.9
	z"/>
<path class="st9" d="M2396.4,1045.5c0.6-137.5,43.5-241.8,125.5-329.5c34.5-36.9,78.5-61.7,124.8-82.3c19.7-8.8,35.5-6.1,49.3,10.1
	c31.3,36.9,64.2,72.6,93.5,111c96.8,126.7,174.9,264.4,237.1,411.2c2.6,6.2,4.8,12.6,8.4,18.2c20.6,31.3,15.8,58.3-10,85.1
	c-40.6,42.2-80.4,83.4-134.4,110.7c-155.1,78.2-340.6,21.3-428.7-123.1C2419.3,1186.9,2393.8,1111.9,2396.4,1045.5z"/>
<path class="st9" d="M437.9,1633.5c-2.9-63.5,9.1-121,22.9-177.6c26.5-108.9,65.5-213.8,111.2-316.1c2-4.6,4.1-9.2,6.7-13.5
	c9.6-16.3,21.1-20.6,37.7-10.6c27.1,16.3,55.2,32.1,79.2,52.5c58.7,50.1,111.6,105.1,144,177.4c53.3,119.2,59.8,239.5,6.4,359.2
	c-42.9,95.9-118.1,159.8-216.3,196.7c-11.7,4.4-22.6,4.3-33.8-1c-78.4-37.3-131.9-94.9-150.3-181.9
	C439.2,1689,436.3,1659.3,437.9,1633.5z"/>
<path class="st9" d="M2814.4,1757.5c35.1-1.7,78.3,1.1,121.1,10.7c43,9.6,82.5,27.5,120.4,49c18.2,10.3,19.4,26.3,3.1,40.9
	c-12.3,11-26.4,20.6-40.8,28.8c-65.6,37.8-136.1,63.5-208.5,85.4c-104.4,31.7-212,47.8-318.7,67.6c-40.9,7.6-83,9.1-124.6,12.6
	c-9.7,0.8-20.1-0.7-29.5-3.3c-6.6-1.8-10.5-8.5-8.3-16c1.9-6.3,4.6-12.5,8-18.2c63.8-105.1,151.3-182.1,267.9-223.8
	C2688.9,1761.3,2714.6,1757.5,2814.4,1757.5z"/>
<path class="st7" d="M1777.6,3031.6c-37.1-1.2-72.6-10.1-108.2-19.8c-33.6-9.2-60.3-27.8-83.1-53.2c-15-16.7-15-27.4,2.7-41.9
	c37.9-31.1,80.6-53.7,128.1-66c102.8-26.7,197.9-6.1,287.4,47.7c5.7,3.4,11.2,7.3,16.4,11.5c9.4,7.7,10.6,16.8,2.9,26.1
	c-24.8,29.9-53.5,56.4-89.7,70.4C1884.3,3025.5,1831.6,3034.3,1777.6,3031.6z"/>
<path class="st17" d="M1791.1,3399.4c-39.6,2.1-81.4,2.3-123.2,0.6c-97.3-4.1-192.6-20.8-286.4-46c-29.1-7.8-58.3-15.4-86.7-25.3
	c-70-24.4-127.2-66.2-168.6-128.4c-3.6-5.5-8.7-11.2-4-17.6c4.7-6.4,12.3-3.9,18.7-2.6c90.1,19.2,181.8,27.3,273.2,34.9
	c66.4,5.5,133.7,5.3,200.7,2.2c76.9-3.6,153.3-10.4,228.1-29.5c122.5-31.4,228.5-90.3,319.1-180.2
	c105.9-105.1,170.5-230.5,199.3-375c7.8-39.1,14.3-78.9,14.1-119.3c-0.3-56.9,1.6-113.8,1.4-170.7c-0.3-67.2-13-132.9-25.3-198.7
	c-1.5-8.2-4.4-16.2-5.3-24.4c-1.5-13.1,5.7-21.7,19.5-24.6c1.6-0.3,3.3-0.5,5-0.6c41.7-2.8,83.4-4.6,124.7-11.8
	c17.8-3.1,32.5,4.6,28.5,28.7c-5.7,33.6,6,66.1,8.9,99.2c4.4,49.9,11.8,99.5,17.1,149.3c10.3,98,15.7,196.4,21.8,294.7
	c2.3,36.6,9,73.3,6,109.8c-7.7,94.7-8.7,190.1-36.3,282.6c-22.1,74-60.8,137.3-111.1,194.3c-37.4,42.4-84.6,71.3-138.1,88.2
	c-92.6,29.1-186.5,52-283.4,63.4C1936.7,3401,1865.2,3402,1791.1,3399.4z"/>
<g class="st4">
	<path class="st18" d="M3152.5,1625.2c-1.7,50.8-4.2,102.6-28.3,150.3c-3.8,7.5-7.7,14.8-12.3,21.8c-5.3,8.3-13.7,9.7-21.9,5.9
		c-10.6-5-20.2-11.8-30.6-17.1c-60.2-30.5-123.5-48.3-190.8-57.5c-85.3-11.7-166.7,2.7-246.7,27c-82.7,25.1-155.5,70.7-218,129.9
		c-39.9,37.8-76.3,81.1-96.1,133.2c-13.4,35.1-34.8,43.3-68.9,43.1c-115.4-0.7-230.9,0.9-346.3,1.6c-21.7,0.1-43.3-0.1-64.8,5
		c-21.3,5.1-43.6,5.2-64.8,0.4c-23.2-5.3-46.4-5.3-69.8-5.4c-113.8-0.7-227.7,2.5-341.2-3.2c-108.1-5.4-216.8-8.2-323.4-33
		c-56.8-13.2-115.6-17.9-172-34.1c-49.8-14.3-99.6-28.8-149.3-43.3c-8-2.3-15.9-5.2-23.5-8.7c-15.9-7.2-17.9-21-4.5-30.8
		c5.4-3.9,11.5-6.8,17.1-10.5c44.9-29.2,90.5-57.3,122-102.6c11.9-17.1,28.4-20.1,48.8-14.6c79.1,21.5,159.2,38.4,240.3,50.4
		c85.9,12.7,172.1,21.4,258.8,28.2c93.6,7.4,187,7.8,280.5,6.1c76.6-1.4,153.1-8.8,229.6-16.1c95-9.1,189-23.7,282-44.1
		c134.3-29.4,265.7-68.1,388.1-132.6c56.3-29.7,110.5-62.5,156.3-107.8c27.7-27.4,51.7-57.2,66.5-93.3c9.2-22.5,24.1-33.6,47.9-38.2
		c60.3-11.6,113.1-39.4,161-77.7c18.4-14.7,35.2-30.7,50.1-48.9c6.3-7.7,12.5-15.7,19.8-22.4c9.6-8.6,23.1-5.3,29.2,6.8
		c3,5.9,5,12.3,7.3,18.6c29,80.4,49.8,163,63.8,247.3C3151.8,1580.4,3151.1,1602.4,3152.5,1625.2z"/>
	<path class="st18" d="M2669.6,626.6c6.4,3.4,12.9,5.6,17.9,9.7c7.7,6.3,15,13.4,21.5,20.9c77.9,89.6,148.6,184.4,207.2,288.1
		c45.2,80,85.7,162.2,123.1,246.2c11.7,26.4,11.6,46.6-6.9,68.5c-46.8,55.6-97.9,105.3-167.6,131.3c-15.6,5.8-31.5,11.3-47.7,15.1
		c-27.3,6.4-35.9-0.9-38-30c-0.4-5-0.6-10-0.2-15c5.7-86.1-21.6-164.9-54.7-241.9c-52.3-121.6-117.7-235.8-195.9-342.6
		c-29-39.6-27.2-46,11-77.4c32.5-26.7,67.7-48.7,106.4-65.2C2653.2,631.3,2661.3,629.3,2669.6,626.6z"/>
	<path class="st18" d="M1611.9,1780.2c-74.5-1.6-165.1-20.4-249.5-65.3c-62.1-33-111.5-79.4-144.6-141.6c-8-15.1-25.2-33.7-8.7-49.6
		c13.2-12.7,31.8,1.3,46.4,7.5c69.6,29.4,141.1,52.4,216.1,61.7c90.3,11.2,180.2,12.3,266.1-25.1c92.7-40.4,158.4-103.9,175.2-208.3
		c1.1-6.6,1.7-13.3,3.4-19.8c4.3-16.9,16-19.5,29.4-6.6c2.4,2.3,4.9,4.6,7,7.2c38.8,45.6,67.1,96.5,70,157.3
		c1.7,34.9-5.2,69.5-22,101.5c-27.3,51.9-67.8,90.2-118.6,118.5C1804.4,1760.7,1721,1780.9,1611.9,1780.2z"/>
	<path class="st18" d="M438.2,1629.4c0.9-23.2-3.3-46.8,4.1-69.8c4.9-15,13.7-18.3,25.7-8.5c28.5,23.3,56.4,47.2,85.3,70
		c59.4,47,125.1,83.6,193,116.5c6,2.9,11.9,6.2,18,8.9c38.7,16.7,48.9,24.8,9.3,64c-40.7,40.3-88.3,71.4-142.9,90.7
		c-11.7,4.1-22.6,5-33.9-0.2c-77.2-35.9-130.5-92.4-150.2-176.9C439.3,1693.1,434.4,1661.6,438.2,1629.4z"/>
	<path class="st18" d="M2006.3,2723.4c16.7,0,33.4-0.7,50,0.2c11.1,0.6,19.1,7.7,19.8,19c1.1,18.3,2.8,36.9,0.5,55
		c-10,79.3-50.1,140.7-116.2,184.5c-32.7,21.6-71.7,27.1-109.4,33.7c-67.3,11.8-132.8,0.7-196.8-21.1c-17.6-6-33.8-14.5-45.9-29.2
		c-5.1-6.3-1.3-18.4,7-19.8c26.3-4.5,52.8-7.6,79-12.7c50.8-10,101-21.6,145.8-49.9c44.4-28.1,74.6-66,88.6-116.7
		c2.2-8,4.3-16.1,6.7-24.1c3.8-12.7,12.6-19.3,25.8-19.5c15-0.2,30.1,0,45.1,0C2006.3,2722.9,2006.3,2723.1,2006.3,2723.4z"/>
	<path class="st18" d="M2634,595.9c-1.4,3-2.2,8.8-5.6,11.5c-7.7,6.2-16.5,11.2-25.1,16.2c-33.4,19.3-65.4,40.1-93.7,66.7
		c-24.8,23.4-25.8,22.9-49.8-5.3c-34.6-40.7-67.4-83.1-103.5-122.3c-55.5-60.2-111.2-120.4-175.4-171.7c-2.4-1.9-4.2-5.1-5.5-8
		c-1.7-3.7-0.3-7.3,3.6-8.1c4.7-1,10.1-2.1,14.5-0.9c58.1,15.4,117.8,25.2,173.2,49.7c90.4,40,177.9,85.3,253.3,150.7
		C2630.9,583.9,2633.1,587.2,2634,595.9z"/>
	<path class="st18" d="M1400.9,373.7c8-0.8,14.1,1.6,14.1,9.7c0,8-6.4,10.6-13.5,10.5c-6.5-0.1-14-0.7-13.8-9.4
		C1387.8,376.6,1394.8,374.6,1400.9,373.7z"/>
</g>
<path class="st16" d="M1837.9,273c27.5-1.8,51.8,3.4,75.1,14c35.5,16.1,72.9,23.4,111.8,25.7c21.6,1.3,43,5.8,64.5,8.9
	c15.1,2.2,23.4,11.8,27.3,25.8c8.8,31.7,5.3,63.1-4.1,93.8c-24.1,78.7-75.6,133.3-151.2,163.8c-67.4,27.1-138.6,37.7-210.9,39.5
	c-77,1.9-154.1-0.6-231,2.8c-197.6,8.7-383.4,54.7-544.7,176.9c-96.7,73.3-182,157.6-254.9,254.4c-85.1,113.1-149,238-203.5,368
	c-10.3,24.6-17.3,50.6-25.8,76c-2.7,7.9-4.6,16.2-8.4,23.5c-4,7.7-11.4,12.5-20.3,12.5c-11.8,0.1-17.6-8.3-21.8-17.8
	c-5-11.4-3.1-23.1,0-34.5c22.8-83.9,45.5-167.7,81.7-247.4c46.5-102.2,99.5-200.5,155.2-297.9c44.8-78.4,90.5-156,138-232.7
	C852.7,666.9,904,619.9,958,574.9c30.9-25.7,64.5-47.7,99.6-67.5c52.4-29.7,103.5-61.7,156.5-90.3c96.6-52,199.9-85,307.7-104.5
	c82.2-14.9,164.7-28.6,248.4-32.2C1793.6,279.4,1815.9,269.3,1837.9,273z"/>
<path class="st0" d="M969.2,2730.1c-7.6-77.2,6.6-156.8,10-237c4.9-113.6,19.3-226.3,36.5-338.6c2-13.2,2.9-26.6,4.4-39.9
	c4.6-40.8,4.8-42.3-37.1-49.1c-92.8-15-182.8-40.7-272.3-68.2c-73.8-22.7-143.7-55.4-205.4-102.6c-61.2-46.8-93.7-110.8-109.4-185.7
	c-18.1-86.4-2.1-169.8,16.8-253c36-159.4,99.7-308.5,174.8-452.9C655,873.5,736.2,753.3,831.2,642c70.5-82.5,156-145.1,247.6-201.6
	c103.1-63.5,217.4-93.7,333.3-120.9c87.9-20.6,176.4-39.1,266.3-47.2c46.5-4.2,93.6-3.2,140.5-3.4c126.4-0.5,249.2,24.3,371.2,54.2
	c73,17.9,146.6,33.6,216,64.6c87.7,39.1,168.1,89.3,243.1,148.9c84.8,67.4,150.4,151.6,212.9,238.6c107.1,149,188.7,312,254.1,482.9
	c41.3,108,73.5,219.4,83,335c8.6,103.4-14.1,199.6-87.3,278.8c-16.1,17.5-35,31.4-55,43.4c-66.2,39.9-135.8,72-210.6,92.7
	c-79,21.8-157.9,44.1-239.1,56.7c-8.2,1.3-16.4,3.2-24.5,5.1c-18.4,4.4-19.8,6-17.6,23.1c10.6,81.2,22,162.2,31.9,243.5
	c5.1,41.4,8.1,83.1,11.2,124.7c3.2,43.3,1.3,86.8,9.4,129.9c4.1,21.9-2.1,45.2,7.8,66.6c17.9-15.6,27.8-37.1,41-56.1
	c87-125.4,182.7-243.7,294.6-347.9c66.2-61.6,136.1-118.9,219.9-156.4c23.1-10.3,46.4-18.8,71.1-23.9
	c65.2-13.4,116.5,33.3,106.9,99.2c-5.5,38.1-15.9,75-32.4,110.3c-35.6,76.1-78.4,147.9-127.5,215.8
	c-68.7,95-143.2,184.9-224.9,269.4c-36,37.3-74.9,71.3-110.4,109c-2,2.1-2.4,5.6-3.5,8.5c3,0.3,6.5,1.8,9,0.8
	c72.3-31.2,146.8-56.2,222.8-76.8c87.5-23.7,176-40,267.2-37.4c35.7,1,69.4,8.8,101.9,23.3c49,22,74.2,81.8,57,129.9
	c-16.1,45.2-40,84.8-72.2,119.3c-45.9,49.2-98.8,89.6-157.7,122.9c-144.8,81.8-300.4,129.1-464.6,150.7
	c-62.9,8.3-125.7,17.1-189.4,17.1c-65.4,0-130-7.4-194.3-18.3c-23.9-4-44.8-4.3-66.4,10.3c-24.9,16.9-53.6,27.1-82.5,36.2
	c-102.3,32.4-206.4,54.4-313.6,65.5c-103.7,10.7-207.4,8.6-310.7,5c-93.2-3.2-186.3-17.5-276.6-44c-36.9-10.8-74.2-20.6-110.6-32.8
	c-59.8-20.1-110.9-54-154.2-100.1c-71.9-76.5-116.2-166.5-136.9-269.2C971.7,2903.7,964.9,2819.1,969.2,2730.1z M2742.2,1458.6
	c-23.5-0.2-46.7-1-70-5.2c-107.4-19.6-183.2-85-246.3-168.7c-15.1-20.1-27.5-42.1-36.4-65.7c-30.2-80.5-48.4-161.6-36.1-249.6
	c15.9-113.7,59.3-211.4,142.1-291.5c30.4-29.4,63.9-53.6,101.8-72.2c15.7-7.7,15.7-13.1,2.3-26c-7.2-7-14.6-13.8-22.7-19.8
	c-120.4-88.9-253.9-147.8-401.2-174.9c-3.3-0.6-6.7-0.7-10-0.7c-7.3,0-13.4,2.9-15.8,9.8c-3.8,11.1-7.1,22.3-9.8,33.7
	c-14.5,62.4-37.5,121.7-70.5,176.4c-91.7,152-218.6,255.8-398.7,283.5c-155.7,23.9-290.9-22.2-407.5-125.1
	c-72.7-64.1-126.5-142-159.9-233.6c-8-22-11.5-23-32.6-9.5c-65,41.7-125.4,89.2-177.5,146.6c-72.2,79.5-133.6,167.2-189.1,258.9
	c-24.2,40-44.5,82.3-66.8,123.5c-7,12.9-3.5,22.2,8.5,29.4c8.6,5.2,16.9,10.9,25.5,16c96.6,57.4,165.6,139,213,240.2
	c26.6,56.9,39.7,117.4,44.8,179.1c5,60.8-8.4,120.1-30.6,176.5c-28.7,72.7-69.4,137.3-135.3,182.8c-19.3,13.3-38.6,26.4-57.8,39.9
	c-2.5,1.8-5.3,4.7-5.8,7.5c-1,6.3,4.7,7.7,9.1,9.2c11,3.9,22.1,7.9,33.3,11c83.7,23.5,167.2,47,253.1,62.3
	c103.8,18.5,207.8,34.1,313.2,35.1c70.3,0.7,139.8,10.8,210.2,10c150.6-1.9,301.2-0.5,451.7-0.6c91.9-0.1,183.8,1.7,275.5-7.6
	c20.4-2.1,34.2-8.1,43.3-27.4c29.7-62.9,73.3-114.8,125.7-160.3c100.9-87.7,218.7-133.7,350.8-144.3c106-8.5,206.2,12.5,300.6,61.8
	c32.5,17,39.1,14.1,49.9-19.6c5.1-15.9,9.3-32.3,11.6-48.7c7.7-54.8,7.6-110.1-1.5-164.5c-11.9-70.9-29.9-140.6-54.7-208.4
	c-2.3-6.2-4.3-12.7-7.6-18.4c-2.8-4.7-8.3-6-12.5-1.8c-10.6,10.7-20,22.5-30.9,32.9C2942.7,1414.5,2852.5,1460.3,2742.2,1458.6z
	 M2557.5,2725.3c4.9-65.2-8.8-141.5-12.2-218.3c-2.5-56.7-6.5-113.4-12.5-169.8c-7.1-66.4-16.8-132.6-26-198.7
	c-2.3-16.2,6.4-38.7-7.6-47.2c-11.9-7.2-32-0.7-48.5-0.2c-13.4,0.4-27-0.5-40.1,1.7c-77.8,13-156.7,12.5-234.8,15.1
	c-163.8,5.6-328,2.1-492,3.8c-142.2,1.4-284.2-3-426.1-11.5c-51.7-3.1-103.3-7.8-154.9-12.2c-12.2-1-18.4,2.2-19.6,15.4
	c-3.8,41.6-7.6,83.2-12.8,124.6c-13,102.7-25.3,205.5-29.1,309.1c-2.6,70.1-12.4,139.8-10.8,210.2c2,92.2,7.9,183.6,32.5,273.1
	c29.1,105.9,86.3,190.8,179.5,250.8c33.1,21.3,70.3,30.5,107,41.8c115.8,35.7,235,53.1,355.3,58.2c59.5,2.5,119.5-2.6,179.4,0.8
	c18,1,36.3-6.1,54.6-6.5c123.5-2.9,241.3-33.9,358-70.7c44-13.9,81.4-40,113.3-72.2c66.3-67.2,107.9-148.2,126.3-240.9
	C2552.2,2900.9,2558.4,2819.4,2557.5,2725.3z M1793.1,331.7c-59.8-1.4-124.6,5.9-188.9,15.1c-90.9,13-180.4,34.5-269.3,57.6
	c-53.3,13.9-106.3,29.7-155.7,55.1c-27.5,14.1-29.5,20.1-19.2,47.3c27.7,72.8,68.8,137.4,124.1,192.1
	c78.9,78.2,174.3,123.8,285,131.4c146.2,10,268.8-46.1,368.1-149.9c72.8-76,120-168.2,143-271.8c1.4-6.5,2.7-13.1,3.4-19.7
	c1.5-13.2-3-22.9-17-26.2c-11.4-2.7-22.5-6.6-34.1-8.4C1955,342.2,1877.2,332.3,1793.1,331.7z M2743.3,1396.7
	c16.7-2.1,38.4-3.9,59.6-7.7c81-14.6,143.2-60.1,197.7-119.6c25.7-28.1,33.8-56,14.6-90.2c-4.9-8.7-7.9-18.4-12.4-27.4
	c-27.6-55.2-55.2-110.3-83-165.4c-43-85.4-98.8-162.5-156.3-238.5c-21.1-27.9-43.8-54.8-67.1-80.9c-23.4-26.2-29.4-26.9-60.5-11.7
	c-84.3,41.3-144.1,106.1-183.3,191c-28.7,62.1-36.6,127.1-36.1,195c0.6,81.7,24.2,154.7,70.9,220.3
	C2548.5,1347.5,2633.3,1390.9,2743.3,1396.7z M2618.1,3273.7c30.5,2.1,59.9-8,89.8-8.4c62.3-0.8,123.1-11.1,183.8-22.7
	c115.7-22,226.5-58.1,331.7-111.4c69.3-35.2,131-80.2,183.3-138c20.6-22.8,35.7-48.5,47-76.5c13.5-33.4,4.5-53.9-30.1-67
	c-23.4-8.8-47.9-14.1-73.4-15c-48.9-1.7-96.8,6-144.2,15.1c-221.7,42.4-423.9,131.9-610.6,257.3c-19.3,12.9-40.2,26.8-52.9,45.3
	c-22.6,33.2-45.9,65.7-71.1,96.9c-6,7.5-1.2,12,7.1,12.8C2525,3266.1,2571.6,3269.9,2618.1,3273.7z M458.6,1618.4
	c0,22.6-1.5,44.4,0.3,66.1c7.3,92,58.3,153.8,137.5,195.5c9.3,4.9,18.9,6.5,28.9,2.5c53.3-21.5,103.9-48.6,141.8-92.1
	c89.8-103,116.8-223.4,85.5-355.3c-26.1-110-90.5-196.4-179.2-264.8c-18.4-14.2-39.7-24.7-59.9-36.4c-8.6-5-16.3-1.8-21.3,6.4
	c-4.3,7.1-8,14.7-11.4,22.3c-34.9,77.9-65.4,157.6-88,239.9C473.3,1473.2,452.8,1544.3,458.6,1618.4z M3290.6,2170.4
	c0-5,0.3-10.1-0.1-15c-1.2-16.4-7-21.6-22-18.7c-28,5.4-55.8,12.3-80.7,26.6c-52.3,30-103.2,62.3-147.4,103.6
	c-93,86.8-181.9,177.8-256.8,280.9c-53.1,73-102.8,148.4-154.3,222.5c-6.1,8.7-8.6,17.9-8.6,28.2c-0.1,62-7.1,123.3-18.8,184.1
	c-0.6,2.9,0.2,7,2,9.3c3.6,4.8,8.8,2.9,13.1,0.6c5.9-3.2,11.5-6.8,17.1-10.5c64.8-41.8,123.4-91.7,180.2-143.4
	c68-61.9,131.6-128.1,192-197.8c71.4-82.3,138.2-167.8,195.8-260.2c27.4-43.9,53.8-88.6,71.9-137.5
	C3282.6,2219.6,3291.7,2196.2,3290.6,2170.4z M2796.6,1770.1c-3.9,0-19,0-34,0c-3.3,0-6.7,0.2-10,0.6
	c-137.2,18.4-256.5,72-349.5,177.4c-18.9,21.4-35.1,44.6-48.5,69.8c-5.1,9.5-0.1,16.4,10.5,15.5c68.2-5.5,135.8-15.2,203.2-26.8
	c112.3-19.2,222.3-46.7,329.9-83.7c50.8-17.4,98.1-42.5,142.3-73.1c14.1-9.7,13.7-18.2-1-25.6
	C2966.4,1788,2889.7,1767.5,2796.6,1770.1z"/>
<path class="st0" d="M1584.5,1153.7c122.4-1.3,234.9,31.1,335.9,100.3c41.6,28.5,76.3,64.4,104.6,106.8
	c60.1,90.1,63.4,222.4-25.1,319.9c-60.6,66.8-136.1,107.5-222.3,128.6c-42,10.3-85.5,15-128.5,20.2c-38.5,4.7-76.9-4.2-114.4-10.1
	c-104-16.4-200-52.7-279.4-125.7c-40.1-36.9-73.6-78.3-91.3-129.7c-28.4-82.2-20.8-160.9,29.3-234.2
	c54.7-80,133.3-124.6,223.3-152.2c27.1-8.3,55-15.1,83-19C1527.4,1154.6,1556.1,1155.1,1584.5,1153.7z M1629.4,1759.4
	c104.1,5.4,183.1-23.6,240.8-54.5c51.4-27.6,91.9-65.9,116.4-119.9c21.8-48.1,24.2-96.9,6-146.3c-16.6-44.8-43.4-83.3-81.5-112
	c-156.9-118.1-329.5-136.7-512.5-75.2c-52.7,17.7-98.6,48.3-136.1,91c-67,76.4-60.4,181.6-19.1,242.1c32,46.9,72,83.3,121.1,110.3
	C1448.2,1741,1537.6,1764.8,1629.4,1759.4z"/>
<path class="st0" d="M1797.6,2685.9c76.9,0,153.8-0.4,230.7,0.1c74,0.5,104.3,32.4,96.9,106.1c-10.3,101.9-55.8,184.1-142.7,241.2
	c-28.7,18.8-62.4,23.1-94.3,32.6c-84.1,25-166.6,12.6-245.6-17.2c-71.7-27-121.6-81.6-151.9-151.7c-11.8-27.3-17.6-57.4-24.6-86.6
	c-3.1-12.8-3.5-26.5-3.2-39.8c1.1-54.9,28.4-83.5,84-84.3c83.6-1.3,167.2-0.3,250.8-0.3C1797.6,2686,1797.6,2686,1797.6,2685.9z
	 M1798.3,2748.6c-48.4,0-96.8,0-145.2,0c-31.7,0-63.4-0.4-95.1,0.2c-29.2,0.6-35.2,6.8-32,36.4c2.1,19.8,6.4,39.5,12,58.6
	c24.6,83.4,76.1,139.3,163.7,157.6c19.6,4.1,39,9.1,58.8,11.8c64.8,8.9,125.6-7.7,185-31.7c6.1-2.5,11.8-6.3,17.2-10.2
	c65.4-47.7,93.8-114.8,100.3-193.1c0.4-4.9-0.3-10-1.3-14.9c-1.5-6.9-5.6-12.4-13.1-13c-13.3-1-26.6-1.7-39.9-1.7
	C1938.5,2748.5,1868.4,2748.6,1798.3,2748.6z"/>
<path class="st7" d="M3485.6,931.4c3-10,5.3-20.3,9.1-29.9c14.8-37.5,47-58.3,86.5-57.8c24.3,0.3,41.5,13.8,56.8,29.9
	c20.1,21.1,36.9,44.7,44.8,73.5c2.4,8.9,5.8,17.6,9.2,26.3c3.5,8.9,7.3,10.1,16.1,5.6c8.2-4.3,16.3-8.9,24.4-13.4
	c30.6-16.7,64-22.8,97.7-17.6c44.9,7,83.2,39.7,88.8,89.6c2.9,25.9-1.2,50.2-16.7,72.8c-25.8,37.9-55.5,71.3-95.3,94.9
	c-38.9,23.1-76.6,48.5-120.6,61.4c-17.8,5.2-35.8,9.8-54,13.4c-21.9,4.3-40.9-1.7-57.4-17.4c-17.1-16.2-30.8-35-41-55.8
	c-33.7-68.3-56.7-139.5-55.7-216.9C3478.5,970,3480.2,950.5,3485.6,931.4z"/>
<path class="st16" d="M3110.2,600.9c-2.9-8.3-6.5-16.4-8.7-24.9c-8.6-32.8,2.9-63.1,30-82.4c16.6-11.9,35.1-11.3,53.4-8
	c24.2,4.4,47.3,12,67.1,27.6c6.1,4.9,12.7,9.1,19.3,13.3c6.8,4.3,10,3.2,13.7-4.2c3.5-7,6.6-14.2,9.9-21.2
	c12.5-26.6,32.1-47.4,57.6-60.6c34-17.6,76.3-14.5,104.9,16.6c14.9,16.2,24.2,34.7,25,57.8c1.3,38.6-2.2,76.1-17.4,112
	c-14.9,35-27.8,71.1-51.4,101.8c-9.5,12.4-19.4,24.5-30,36c-12.7,13.8-28.7,19.2-47.7,16.8c-19.7-2.5-38.3-8.4-55.7-17.5
	c-56.9-29.6-108-66.6-145.9-119.6C3124.7,630.7,3116.1,616.6,3110.2,600.9z"/>
<path class="st15" d="M3373.3,1558.5c3.3-10.5,5.8-21.2,9.9-31.3c16-39.2,49.9-60.7,91.4-59.8c25.5,0.6,43.4,14.9,59.3,32
	c20.9,22.4,38.3,47.3,46.3,77.7c2.5,9.4,5.9,18.6,9.4,27.7c3.6,9.3,7.5,10.7,16.8,6c8.7-4.4,17.2-9.2,25.8-13.8
	c32.3-17.2,67.4-23.3,102.7-17.4c47,7.8,86.9,42.5,92.2,95c2.8,27.3-1.8,52.6-18.2,76.2c-27.5,39.5-59,74.3-101,98.7
	c-41,23.8-80.9,50.1-127.2,63.1c-18.7,5.2-37.7,9.9-56.8,13.5c-23,4.3-42.9-2.3-60.1-18.8c-17.8-17.2-31.9-37-42.5-59
	c-34.6-72.1-58-147.1-56.2-228.3C3365.5,1599,3367.5,1578.5,3373.3,1558.5z"/>
<g>
	<path class="st0" d="M1738,2500h-62c0-92.3-89.9-167.5-200.3-167.5s-200.3,75.1-200.3,167.5h-62c0-126.5,117.7-229.6,262.4-229.6
		S1738,2373.4,1738,2500z"/>
	<circle class="st0" cx="1547" cy="2412" r="89.2"/>
	<path class="st0" d="M2374.2,2500h-62c0-92.3-89.9-167.5-200.3-167.5s-200.3,75.1-200.3,167.5h-62c0-126.5,117.7-229.6,262.4-229.6
		S2374.2,2373.4,2374.2,2500z"/>
	<circle class="st0" cx="2183.3" cy="2412" r="89.2"/>
</g>
<g class="st1">
	<g>
		<path class="st2" d="M1781.6,3059.7c937.7,0,1697.8,144.5,1697.8,322.7c0,178.2-760.1,322.7-1697.8,322.7
			c-937.6,0-1697.7-144.5-1697.7-322.7C83.8,3204.1,844,3059.7,1781.6,3059.7"/>
	</g>
</g>
<g>
	<g>
		<g>
			<path class="st6" d="M1789.8,3459.8c-566.5,0-1025.8-318.8-1025.8-712.3c0-114,38.6-221.7,107.2-317.2l-0.1,0l1-1.3
				c6.9-9.6,14.1-19,21.6-28.3c114.1-151.5,176.6-267.6,187.3-348.2c69.7,20.7,141.8,38.7,216.2,54l0.7,0.2l3.9,0.8l3.9,0.8l7.9,1.6
				l3.9,0.8c156.2,31.4,314.2,49.5,472.2,53.8c158-4.3,316-22.4,472.2-53.8l3.9-0.8l7.9-1.6l3.9-0.8l4-0.8l0.7-0.2
				c74.4-15.3,146.4-33.3,216.1-54c10.8,80.6,73.3,196.7,187.4,348.2c7.5,9.3,14.7,18.7,21.6,28.3l1,1.3l-0.1,0
				c68.5,95.5,107.2,203.2,107.2,317.2C2815.6,3140.9,2356.3,3459.8,1789.8,3459.8z"/>
		</g>
	</g>
</g>
<g>
	<g>
		<path class="st5" d="M1138.4,3297.8C909.8,3167.2,764,2969.2,764,2747.5c0-114,38.6-221.7,107.2-317.2l-0.1,0l0.9-1.3
			c6.9-9.6,14.1-19,21.6-28.3c80-106.3,134.7-195.2,163.9-266.6c21.7-5.3,43.8-10.6,66.6-15.7c17.7,149.9-130.3,282.6-211.4,449.2
			c-23.6,48.4-35.3,102.5-36.5,158.9c10.9-26.7,29.4-45.8,53.4-51.7c50.4-12.1,105.9,39.1,124.1,114.5c18.1,75.3-8,146.2-58.4,158.3
			c-32,7.7-66.1-10.1-91.3-43.5c50.1,153.7,164.2,299.3,315.7,373.2C1191.9,3285.4,1164.9,3292.1,1138.4,3297.8"/>
	</g>
</g>
<g>
	<g>
		<path class="st0" d="M1789.8,3500.2c-587.9,0-1066.2-337.6-1066.2-752.7c0-117.7,39.3-234.9,113.6-339.1c0.5-0.8,1.1-1.6,1.7-2.4
			l1-1.3c6.4-8.8,13.9-18.8,22-28.8c109.1-145,169.4-255.6,179.2-328.7c1.6-11.7,8.2-22.1,18.1-28.6c9.9-6.4,22.1-8.2,33.5-4.8
			c68.2,20.2,139.8,38.1,212.8,53.2c0.3,0,1.2,0.3,1.5,0.3l18.5,3.7c154,31,314.9,28,469.2,32.2c154.4-4.3,305.8-1.3,459.5-32.2
			l19.6-4c73.6-15.2,145.2-33.1,213.4-53.3c11.3-3.4,23.5-1.6,33.5,4.8c9.9,6.4,16.5,16.9,18.1,28.6
			c9.8,73.2,70.1,183.8,179.2,328.7c8,10,15.6,19.9,22.5,29.5l0.4,0.5c0.6,0.8,1.2,1.7,1.8,2.6c74.2,104.2,113.5,221.3,113.5,339
			C2856,3162.5,2377.7,3500.2,1789.8,3500.2z M904.6,2453c-0.2,0.3-0.4,0.6-0.6,0.9c-66.1,92.1-99.6,190.9-99.6,293.6
			c0,370.5,442,671.9,985.4,671.9c543.4,0,985.4-301.4,985.4-671.9c0-102.7-33.5-201.5-99.6-293.6c-0.3-0.4-0.6-0.8-0.8-1.2
			c-6.5-9.1-13.2-17.8-20.3-26.6c-0.3-0.3-0.6-0.7-0.8-1c-100.2-133-161.2-238.9-185.3-321.8c-57.6,16-117.2,30.4-177.8,42.9
			l-20.9,4.2c-158.3,31.8-319.5,50.2-478.8,54.5c-0.7,0-1.5,0-2.2,0c-159.3-4.3-320.5-22.7-479.1-54.6l-19.8-4
			c-0.3-0.1-1.3-0.3-1.6-0.3c-59.9-12.4-119.4-26.7-177-42.7c-24.1,82.8-85.1,188.8-185.3,321.8c-0.3,0.3-0.5,0.7-0.8,1
			c-7.3,9-14.1,18-20.2,26.5L904.6,2453z"/>
	</g>
</g>
<g class="st1">
	<g>
		<path class="st2" d="M1755.1,3453.5c-298.9,0-567.9-88.8-755.4-230.4c1069.7,303.3,1558,23.5,1389.6-575.4
			c-70-206.2-262.7-324.7-578.1-355.5l0.1,0c-394.3-7.6-650.4-83.3-768.2-226.9c4.3-5.4,8.7-10.7,13.1-16
			c66.7,19.5,135.5,36.5,206.4,51.1l0.7,0.1l4,0.9l3.9,0.8l7.9,1.6l3.9,0.8c156.2,31.4,314.2,49.5,472.2,53.8
			c158-4.3,316-22.4,472.2-53.8l4-0.8l7.9-1.6l3.9-0.8l4-0.9l0.7-0.1c74.4-15.3,146.4-33.3,216.1-54
			c10.8,80.6,73.3,196.7,187.4,348.2c7.5,9.3,14.7,18.7,21.6,28.3l1,1.3l-0.1,0c68.5,95.5,107.2,203.2,107.2,317.2
			C2780.9,3134.6,2321.6,3453.5,1755.1,3453.5"/>
	</g>
</g>
<g>
	<path class="st0" d="M1739.9,2673h-69.4c0-103.3-100.6-187.5-224.2-187.5s-224.2,84.1-224.2,187.5h-69.4
		c0-141.6,131.7-256.9,293.6-256.9S1739.9,2531.3,1739.9,2673z"/>
	<circle class="st0" cx="1526.1" cy="2574.6" r="99.9"/>
	<path class="st0" d="M2451.8,2673h-69.4c0-103.3-100.6-187.5-224.2-187.5S1934,2569.6,1934,2673h-69.4
		c0-141.6,131.7-256.9,293.6-256.9S2451.8,2531.3,2451.8,2673z"/>
	<circle class="st0" cx="2238.1" cy="2574.6" r="99.9"/>
</g>
<path class="st0" d="M1802.2,3000.2c-63.9,0-123.1-32.9-150.8-83.6l47.6-26c18.4,33.6,58.8,55.4,103.2,55.4
	c44.4,0,84.8-21.8,103.2-55.4l47.6,26C1925.3,2967.3,1866.1,3000.2,1802.2,3000.2z"/>
</svg>
