<?xml version="1.0" encoding="utf-8"?>
<!-- Generator: Adobe Illustrator 25.0.0, SVG Export Plug-In . SVG Version: 6.00 Build 0)  -->
<svg version="1.1" id="Layer_1" xmlns="http://www.w3.org/2000/svg" xmlns:xlink="http://www.w3.org/1999/xlink" x="0px" y="0px"
	 viewBox="0 0 4000 4000" style="enable-background:new 0 0 4000 4000;" xml:space="preserve">
<style type="text/css">
	.st0{fill:#00501E;}
	.st1{opacity:0.21;}
	.st2{fill-rule:evenodd;clip-rule:evenodd;fill:#380072;}
	.st3{fill-rule:evenodd;clip-rule:evenodd;fill:#ABFE2C;}
	.st4{opacity:0.5;}
	.st5{fill-rule:evenodd;clip-rule:evenodd;fill:#FFFFFF;}
	.st6{fill-rule:evenodd;clip-rule:evenodd;fill:#E5FFBE;}
	.st7{fill:#ABFE2C;}
	.st8{opacity:0.6;}
	.st9{fill:#FFFFFF;}
	.st10{opacity:0.2;}
	.st11{fill:#000072;}
	.st12{fill:#FFC880;}
	.st13{fill:#FF66AD;}
	.st14{fill:#6EB206;}
	.st15{fill:#91D826;}
	.st16{fill:#E5FFBE;}
	.st17{opacity:0.5;fill:#C0B4BD;}
	.st18{fill:#23CC23;}
</style>
<g class="st1">
	<g>
		<path class="st2" d="M2006.1,3023.6c558.6,0,1011.5,86.1,1011.5,192.3c0,106.2-452.9,192.3-1011.5,192.3
			c-558.6,0-1011.5-86.1-1011.5-192.3C994.6,3109.7,1447.5,3023.6,2006.1,3023.6"/>
	</g>
</g>
<g>
	<g>
		<g>
			<path class="st3" d="M2011,591.1c-278.7-18.4-446.5,500-790,941c-169.7,217.8-467.3,401.1-113.1,667
				c274.4,182.8,588.7,282.6,903.1,291.2c314.4-8.6,628.7-108.4,903.1-291.2c354.1-266,56.5-449.2-113.1-667
				C2457.5,1091.1,2289.7,572.7,2011,591.1z"/>
		</g>
	</g>
</g>
<g class="st4">
	<g>
		<path class="st5" d="M1370.4,1321.8c-46.2,70.4-95.6,141.3-149.4,210.2c-154.7,198.6-415.5,368.4-192.3,598.3
			c12.8-2.9,25.9-6.3,39.4-10.2c-95.3-115.7-86.2-220.7,12.3-329.4c214.3-236.4,312.2-398,309.2-471.3L1370.4,1321.8z"/>
	</g>
</g>
<g>
	<g>
		<path class="st0" d="M2011,2518.4c-0.3,0-0.5,0-0.8,0c-323.2-8.8-640.6-111.1-917.9-295.9c-0.4-0.3-0.9-0.6-1.3-0.9
			c-110.5-83-168.1-164.7-176.1-249.9c-11.9-126.4,88.7-236.8,185.9-343.6c33.5-36.8,68.2-74.9,98-113.2
			c114.9-147.5,211.6-306.4,296.9-446.6c175.7-288.8,314.3-517,515.2-505.3c200.6-11.8,339.6,216.5,515.3,505.3
			c85.3,140.2,181.9,299.1,296.8,446.6c29.9,38.3,64.5,76.4,98,113.2c97.3,106.8,197.8,217.3,185.9,343.6
			c-8,85.2-65.6,166.9-176.1,249.9c-0.4,0.3-0.9,0.6-1.3,0.9c-277.3,184.8-594.7,287.1-917.9,295.9
			C2011.5,2518.4,2011.2,2518.4,2011,2518.4z M1124.1,2176.2c268.1,178.5,574.7,277.4,886.9,286c312.2-8.7,618.8-107.5,886.9-286
			c96.7-72.7,146.8-141.4,153.3-209.8c9.6-101.7-78.4-198.3-171.5-300.5c-34.2-37.6-69.6-76.5-100.8-116.5
			c-116.9-150.1-214.5-310.4-300.5-451.9c-166.3-273.4-297.7-489.4-465.4-478.3c-1.2,0.1-2.5,0.1-3.7,0
			c-167.9-11.2-299.1,204.9-465.4,478.3c-86.1,141.5-183.6,301.8-300.5,451.9c-31.2,40-66.6,78.9-100.8,116.5
			c-93.1,102.3-181.1,198.9-171.5,300.5C977.3,2034.8,1027.4,2103.4,1124.1,2176.2z"/>
	</g>
</g>
<g>
	<g>
		<path class="st5" d="M1286.2,1444.7c-21,29.3-42.7,58.5-65.2,87.3c-61.1,78.5-138.9,152.5-196.8,227.5c33.3,26.4,74.7,42,119.6,42
			c110,0,199.3-94,199.3-210C1343.1,1534.4,1321.4,1482.6,1286.2,1444.7z"/>
	</g>
</g>
<g>
	<g>
		<path class="st0" d="M1143.8,1821.6c-48.1,0-93.7-16-132-46.3c-8.6-6.8-10.1-19.3-3.4-28c29.5-38.2,64.5-76.7,98.4-113.9
			c33.6-36.9,68.4-75.1,98.5-113.7c21.3-27.3,42.4-55.6,64.7-86.7c3.5-4.9,9-7.9,15-8.3c6-0.3,11.9,2,16,6.4
			c40.1,43.2,62.2,100.2,62.2,160.5C1363.1,1718.4,1264.7,1821.6,1143.8,1821.6z M1053.1,1755.4c27.4,17.1,58.4,26.1,90.7,26.1
			c98.8,0,179.2-85.2,179.2-189.9c0-41.6-12.6-81.2-35.8-113.9c-17.1,23.4-33.7,45.4-50.3,66.8c-31,39.8-66.3,78.6-100.4,116.1
			C1106.7,1693.1,1078.4,1724.1,1053.1,1755.4z"/>
	</g>
</g>
<g>
	<g>
		<path class="st5" d="M3010.1,1776.1c-58.8-80.7-143.5-159.8-209.2-244c-16.6-21.3-32.8-42.8-48.6-64.4
			c-24.9,35.1-39.7,78.6-39.7,125.7c0,116,89.2,210,199.3,210C2947.7,1803.3,2981.2,1793.4,3010.1,1776.1z"/>
	</g>
</g>
<g>
	<g>
		<path class="st0" d="M2911.9,1823.4c-120.9,0-219.3-103.2-219.3-230c0-49.9,15-97.4,43.4-137.4c3.7-5.3,9.8-8.4,16.2-8.4
			c0.1,0,0.1,0,0.2,0c6.4,0,12.4,3,16.2,8.2c16.1,22,32.4,43.5,48.3,64c30,38.6,64.8,76.8,98.4,113.7c38.9,42.7,79,86.8,111.1,130.9
			c3.3,4.6,4.6,10.3,3.4,15.8c-1.1,5.5-4.5,10.3-9.4,13.2C2987.6,1813,2950,1823.4,2911.9,1823.4z M2754,1503.6
			c-14,27.4-21.2,58-21.2,89.8c0,104.7,80.4,189.9,179.2,189.9c23.4,0,46.5-4.8,67.9-14.1c-27.9-35.8-60.3-71.4-94.2-108.7
			c-34.1-37.5-69.4-76.3-100.4-116C2774.8,1531.2,2764.4,1517.5,2754,1503.6z"/>
	</g>
</g>
<g>
	<g>
		<path class="st5" d="M1126.5,2211.3c145.7,94.5,302.3,165.8,464,212.8c21.1-38,33.2-82,33.2-128.9
			c0-144.3-114.3-261.3-255.3-261.3C1256,2033.9,1160.6,2108.1,1126.5,2211.3z"/>
	</g>
</g>
<g>
	<g>
		<path class="st0" d="M1590.4,2444.1c-1.9,0-3.7-0.3-5.6-0.8c-165.1-47.9-323-120.4-469.3-215.2c-7.7-5-11-14.5-8.1-23.1
			c37.8-114.4,142.7-191.2,260.9-191.2c151.8,0,275.3,126.2,275.3,281.4c0,48.6-12.3,96.6-35.7,138.6
			C1604.4,2440.3,1597.6,2444.1,1590.4,2444.1z M1150.8,2203.1c134.5,85.5,278.8,151.7,429.3,197c15.3-32.5,23.4-68.5,23.4-104.9
			c0-133-105.5-241.3-235.2-241.3C1272.5,2053.9,1186.9,2113.3,1150.8,2203.1z"/>
	</g>
</g>
<g>
	<g>
		<path class="st5" d="M2433.3,2423.6c161.7-47.2,318.4-118.8,464.2-213.6c-35.1-101.5-129.6-174.1-240.7-174.1
			c-141,0-255.3,117-255.3,261.3C2401.5,2343,2413,2386.1,2433.3,2423.6z"/>
	</g>
</g>
<g>
	<g>
		<path class="st0" d="M2433.3,2443.7c-7.2,0-14.1-3.9-17.6-10.5c-22.4-41.4-34.2-88.4-34.2-135.9c0-155.2,123.5-281.4,275.4-281.4
			c116.5,0,220.9,75.4,259.7,187.6c3,8.7-0.3,18.4-8,23.4c-146.3,95.1-304.3,167.8-469.5,216
			C2437.1,2443.4,2435.2,2443.7,2433.3,2443.7z M2656.8,2055.9c-129.7,0-235.2,108.2-235.2,241.3c0,35.4,7.6,70.5,22.2,102.4
			c150.6-45.5,294.8-111.9,429.2-197.6C2836.1,2114,2751.1,2055.9,2656.8,2055.9z"/>
	</g>
</g>
<g>
	<g>
		<g>
			<path class="st6" d="M2011,3262c-337.5,0-611.2-190-611.2-424.4c0-67.9,23-132.1,63.9-189l0,0l0.6-0.8
				c4.1-5.7,8.4-11.3,12.9-16.8c68-90.3,105.2-159.5,111.6-207.5c41.5,12.3,84.5,23,128.8,32.2l0.4,0.1l2.4,0.5l2.4,0.5l4.7,1
				l2.4,0.5c93.1,18.7,187.2,29.5,281.3,32.1c94.2-2.6,188.3-13.3,281.4-32.1l2.4-0.5l4.7-1l2.4-0.5l2.4-0.5l0.4-0.1
				c44.3-9.1,87.3-19.9,128.8-32.2c6.4,48,43.6,117.2,111.6,207.5c4.5,5.5,8.8,11.2,12.9,16.8l0.6,0.8l0,0
				c40.8,56.9,63.9,121.1,63.9,189C2622.2,3072,2348.5,3262,2011,3262z"/>
		</g>
	</g>
</g>
<g>
	<g>
		<path class="st5" d="M1622.9,3165.5c-136.2-77.8-223.1-195.8-223.1-327.8c0-67.9,23-132.1,63.9-189l0,0l0.6-0.8
			c4.1-5.7,8.4-11.3,12.9-16.8c47.7-63.3,80.2-116.3,97.6-158.8c12.9-3.2,26.1-6.3,39.7-9.3c10.5,89.3-77.6,168.4-126,267.6
			c-14.1,28.9-21,61.1-21.8,94.6c6.5-15.9,17.5-27.3,31.8-30.8c30-7.2,63.1,23.3,73.9,68.2c10.8,44.9-4.8,87.1-34.8,94.3
			c-19.1,4.6-39.4-6-54.4-25.9c29.8,91.5,97.8,178.3,188.1,222.4C1654.8,3158.1,1638.7,3162.1,1622.9,3165.5"/>
	</g>
</g>
<g>
	<g>
		<path class="st0" d="M2011,3286.1c-350.3,0-635.2-201.2-635.2-448.4c0-70.1,23.4-140,67.7-202.1c0.3-0.5,0.6-1,1-1.4l0.6-0.8
			c3.8-5.3,8.3-11.2,13.1-17.1c65-86.4,100.9-152.3,106.7-195.8c0.9-7,4.9-13.2,10.8-17c5.9-3.8,13.2-4.9,19.9-2.9
			c40.6,12.1,83.3,22.7,126.8,31.7c0.2,0,0.7,0.2,0.9,0.2l11,2.2c91.7,18.4,184.8,29.1,276.8,31.6c92-2.5,185-13.2,276.6-31.6
			l11.7-2.4c43.9-9.1,86.5-19.7,127.1-31.8c6.7-2,14-1,19.9,2.9c5.9,3.8,9.8,10,10.8,17c5.8,43.6,41.8,109.5,106.8,195.9
			c4.8,6,9.3,11.9,13.4,17.6l0.2,0.3c0.4,0.5,0.7,1,1.1,1.5c44.2,62.1,67.6,131.9,67.6,202C2646.2,3084.9,2361.3,3286.1,2011,3286.1
			z M1483.6,2662.1c-0.1,0.2-0.2,0.4-0.4,0.5c-39.4,54.9-59.3,113.7-59.3,174.9c0,220.7,263.4,400.3,587.1,400.3
			c323.7,0,587.1-179.6,587.1-400.3c0-61.2-20-120.1-59.3-174.9c-0.2-0.2-0.3-0.5-0.5-0.7c-3.9-5.4-7.9-10.6-12.1-15.8
			c-0.2-0.2-0.3-0.4-0.5-0.6c-59.7-79.3-96.1-142.3-110.4-191.7c-34.3,9.5-69.8,18.1-105.9,25.5l-12.4,2.5
			c-94.3,19-190.4,29.9-285.3,32.5c-0.4,0-0.9,0-1.3,0c-94.9-2.6-190.9-13.5-285.4-32.5l-11.8-2.4c-0.2,0-0.8-0.2-1-0.2
			c-35.7-7.4-71.1-15.9-105.5-25.5c-14.3,49.4-50.7,112.5-110.4,191.7c-0.2,0.2-0.3,0.4-0.5,0.6c-4.3,5.4-8.4,10.7-12.1,15.8
			L1483.6,2662.1z"/>
	</g>
</g>
<g class="st1">
	<g>
		<path class="st2" d="M1990.3,3258.2c-178.1,0-338.3-52.9-450-137.3c637.3,180.7,928.2,14,827.9-342.8
			c-41.7-122.8-156.5-193.5-344.5-211.8l0,0c-234.9-4.6-387.5-49.6-457.7-135.2c2.6-3.2,5.2-6.4,7.8-9.5
			c39.7,11.6,80.7,21.7,123,30.5l0.4,0.1l2.4,0.5l2.3,0.5l4.7,0.9l2.3,0.5c93.1,18.7,187.2,29.5,281.3,32.1
			c94.2-2.6,188.3-13.3,281.3-32.1l2.4-0.5l4.7-0.9l2.3-0.5l2.4-0.5l0.4-0.1c44.3-9.1,87.3-19.9,128.8-32.2
			c6.4,48,43.6,117.2,111.6,207.5c4.5,5.5,8.8,11.2,12.9,16.8l0.6,0.8l0,0c40.8,56.9,63.8,121.1,63.8,189
			C2601.5,3068.3,2327.9,3258.2,1990.3,3258.2"/>
	</g>
</g>
<g>
	<path class="st0" d="M1954.5,1749h-57.4c0-85.5-83.2-155-185.4-155s-185.4,69.5-185.4,155h-57.4c0-117.1,108.9-212.4,242.8-212.4
		S1954.5,1631.9,1954.5,1749z"/>
	<circle class="st0" cx="1777.7" cy="1667.7" r="82.6"/>
	<path class="st0" d="M2543.3,1749h-57.4c0-85.5-83.2-155-185.4-155c-102.2,0-185.4,69.5-185.4,155h-57.4
		c0-117.1,108.9-212.4,242.8-212.4C2434.4,1536.6,2543.3,1631.9,2543.3,1749z"/>
	<circle class="st0" cx="2366.6" cy="1667.7" r="82.6"/>
</g>
<path class="st0" d="M2006.1,2019.6c-52.8,0-101.8-27.2-124.7-69.2l39.4-21.5c15.2,27.8,48.6,45.8,85.4,45.8s70.2-18,85.4-45.8
	l39.3,21.5C2107.9,1992.4,2058.9,2019.6,2006.1,2019.6z"/>
</svg>
